<svg width="112" height="114" viewBox="0 0 112 114" fill="none" xmlns="http://www.w3.org/2000/svg">
<path d="M27.9998 99.75C26.6776 99.75 25.5693 99.2948 24.6748 98.3844C23.7804 97.474 23.3332 96.3458 23.3332 95V85.2625C21.9332 83.6792 20.8054 81.9177 19.9498 79.9781C19.0943 78.0385 18.6665 75.9208 18.6665 73.625V28.5C18.6665 21.9292 21.6609 17.1198 27.6498 14.0719C33.6387 11.024 43.0887 9.5 55.9998 9.5C69.3776 9.5 78.9443 10.9646 84.6998 13.8938C90.4554 16.8229 93.3332 21.6917 93.3332 28.5V73.625C93.3332 75.9208 92.9054 78.0385 92.0498 79.9781C91.1943 81.9177 90.0665 83.6792 88.6665 85.2625V95C88.6665 96.3458 88.2193 97.474 87.3248 98.3844C86.4304 99.2948 85.3221 99.75 83.9998 99.75H79.3332C78.011 99.75 76.9026 99.2948 76.0082 98.3844C75.1137 97.474 74.6665 96.3458 74.6665 95V90.25H37.3332V95C37.3332 96.3458 36.886 97.474 35.9915 98.3844C35.0971 99.2948 33.9887 99.75 32.6665 99.75H27.9998ZM27.9998 47.5H83.9998V33.25H27.9998V47.5ZM39.6665 76C41.611 76 43.2637 75.3073 44.6248 73.9219C45.986 72.5365 46.6665 70.8542 46.6665 68.875C46.6665 66.8958 45.986 65.2135 44.6248 63.8281C43.2637 62.4427 41.611 61.75 39.6665 61.75C37.7221 61.75 36.0693 62.4427 34.7082 63.8281C33.3471 65.2135 32.6665 66.8958 32.6665 68.875C32.6665 70.8542 33.3471 72.5365 34.7082 73.9219C36.0693 75.3073 37.7221 76 39.6665 76ZM72.3332 76C74.2776 76 75.9304 75.3073 77.2915 73.9219C78.6526 72.5365 79.3332 70.8542 79.3332 68.875C79.3332 66.8958 78.6526 65.2135 77.2915 63.8281C75.9304 62.4427 74.2776 61.75 72.3332 61.75C70.3887 61.75 68.736 62.4427 67.3748 63.8281C66.0137 65.2135 65.3332 66.8958 65.3332 68.875C65.3332 70.8542 66.0137 72.5365 67.3748 73.9219C68.736 75.3073 70.3887 76 72.3332 76ZM30.0998 23.75H82.3665C81.1998 22.4042 78.6915 21.276 74.8415 20.3656C70.9915 19.4552 64.7887 19 56.2332 19C47.911 19 41.8248 19.4948 37.9748 20.4844C34.1248 21.474 31.4998 22.5625 30.0998 23.75ZM37.3332 80.75H74.6665C77.2332 80.75 79.4304 79.8198 81.2582 77.9594C83.086 76.099 83.9998 73.8625 83.9998 71.25V57H27.9998V71.25C27.9998 73.8625 28.9137 76.099 30.7415 77.9594C32.5693 79.8198 34.7665 80.75 37.3332 80.75Z" fill="#1D1B20"/>
</svg>
