<svg width="110" height="115" viewBox="0 0 110 115" fill="none" xmlns="http://www.w3.org/2000/svg">
<path d="M108.61 74.849C106.743 32.4897 109.578 22.5144 94.6428 20.1288C91.6009 19.6227 91.5317 19.6227 91.5317 16.8039C91.5317 5.09332 69.5442 2.56404 69.3366 14.2735C69.2679 16.226 69.6135 18.9724 69.6135 18.9724L47.8332 19.7675V16.7315C47.9024 10.7321 42.7171 4.80438 35.1114 4.80438C31.7926 4.80438 28.1974 6.75633 27.9897 10.5873C27.7133 15.2857 27.9205 25.4056 27.7133 27.5742C27.0908 33.2129 31.5157 36.393 35.3877 35.9593C38.6373 35.6703 42.233 33.646 43.5468 28.1526L44.0303 25.6222H72.5174L72.7246 29.0924C71.5492 40.2963 86.2079 38.6339 86.7607 31.1885C86.8299 29.815 86.9684 27.2128 87.1063 25.0443C89.319 25.0443 97.5467 26.7067 98.3072 27.3576C99.4831 28.3692 99.0682 37.6941 99.1374 42.5372C95.8186 42.3207 84.2024 40.8748 63.2523 40.5858C38.1537 40.224 17.1344 41.5975 13.8157 41.5975C9.59741 41.5975 14.3684 29.815 19.762 26.7797C25.5699 23.5984 24.8094 21.4299 18.379 22.731C5.51817 25.2614 3.09831 30.2493 1.64606 57.3561C0.125148 85.0414 1.78453 100.582 6.55555 103.618C13.8849 108.245 68.853 110.196 77.15 110.196C81.2984 110.196 106.397 87.6436 106.328 87.716C108.056 86.2701 109.025 84.1016 108.887 81.7883L108.61 74.849ZM38.3609 29.7427C38.3609 30.6825 37.6697 31.4057 36.7707 31.4775L34.6273 31.6946C33.5904 31.8394 32.7602 30.972 32.6909 29.8874C32.4146 22.1531 31.2393 12.6834 35.6647 9.79225C36.6328 9.14143 37.9461 9.86464 38.0153 11.021C38.4301 16.2255 38.3609 15.7917 38.3609 29.7427ZM80.0539 34.0079C76.8044 34.0803 76.0439 17.0205 79.155 14.7801C81.1605 13.3343 82.543 15.2133 82.543 23.2371C82.6122 32.2007 81.4369 33.9355 80.0539 34.0079ZM64.7732 101.161C61.0396 102.823 14.1613 101.088 12.4326 99.2812C9.1831 95.884 12.1563 46.224 12.1563 46.224C12.1563 46.224 36.9086 45.7903 63.3902 46.5853C86.7607 47.308 96.4406 48.5373 99.2066 48.6815C99.9671 48.7538 103.147 71.2347 102.456 79.1137C98.7913 77.09 93.1911 74.8491 90.4943 74.1258C84.2024 72.391 78.8093 73.2584 77.7033 76.8728C74.868 86.5591 67.7464 99.8597 64.7732 101.161ZM72.7246 101.595C73.6927 99.8597 73.5548 101.016 79.5011 89.2337C85.7238 76.7286 84.4788 77.9574 89.6646 79.7646C92.0153 80.5596 97.4088 82.4392 100.797 83.3784C93.4675 90.7519 83.5111 96.1006 72.7246 101.595Z" fill="black"/>
<path d="M56.6835 54.8254C50.5993 54.8254 43.754 54.5364 41.4726 54.2475C36.8401 53.669 32.2762 54.3193 34.4889 59.8133C36.5631 64.9454 43.8919 68.6321 42.9935 64.0779L42.6474 62.0542C64.4964 62.0542 66.4327 61.837 63.1139 64.0779C61.1089 65.4514 52.2586 77.5951 49.8388 82.2941C48.8014 84.3179 47.2112 86.6311 46.2431 87.4262C44.1689 89.2334 44.5837 90.3179 47.8333 91.7632C52.8806 94.0041 57.7901 92.8477 57.7901 89.5223C57.7901 84.6792 63.6672 75.4266 72.2406 66.9697L74.1077 65.0901C75.5594 63.6442 75.4907 61.2591 74.0384 59.8133C68.4382 54.753 68.8526 54.8978 56.6835 54.8254Z" fill="black"/>
</svg>
