<svg width="96" height="89" viewBox="0 0 96 89" fill="none" xmlns="http://www.w3.org/2000/svg">
<path d="M65.1429 21.6072C65.1429 18.8635 64.6995 16.1467 63.8379 13.6118C62.9764 11.077 61.7137 8.77376 60.1218 6.83364C58.53 4.89362 56.6401 3.35465 54.5603 2.30466C52.4804 1.25467 50.2512 0.714294 48 0.714294H17.1429C13.5448 0.714294 10.0381 2.09397 7.11922 4.65795C4.20042 7.222 2.01749 10.8402 0.879716 15.0002C-0.258068 19.1603 -0.293035 23.6511 0.779767 27.8367C1.85257 32.0223 3.97875 35.6904 6.85714 38.3214V80.1071C6.85714 82.3235 7.57961 84.4495 8.86553 86.0165C10.1515 87.5835 11.8956 88.4643 13.7143 88.4643H51.4286C53.2472 88.4643 54.9913 87.5835 56.2773 86.0165C57.5632 84.4495 58.2857 82.3235 58.2857 80.1071V38.3214C60.4188 36.3798 62.1497 33.8573 63.3403 30.9551C64.5309 28.053 65.1482 24.8518 65.1429 21.6072Z" fill="black"/>
<path fill-rule="evenodd" clip-rule="evenodd" d="M73.3406 8.81462C74.7189 12.8703 75.4286 17.1921 75.4286 21.582C75.4368 26.7812 74.448 31.9109 72.5397 36.5613C72.3024 37.1405 72.0514 37.7103 71.7874 38.27H89.1429C89.1614 38.27 89.1799 38.2702 89.1984 38.2705C91.3056 36.3358 93.0171 33.832 94.1973 30.9551C95.3877 28.053 96.0055 24.8518 96 21.6072C96 18.8635 95.5563 16.1467 94.6951 13.6118C93.8331 11.077 92.5707 8.77376 90.9785 6.83364C89.387 4.89362 87.4971 3.35465 85.4174 2.30466C83.3376 1.25467 81.1083 0.714294 78.8571 0.714294H69.4114C71.0249 3.17029 72.349 5.89656 73.3406 8.81462ZM89.1429 48.7165H68.5712V80.1071C68.5712 83.0113 68.0751 85.8535 67.1401 88.4643H82.2857C84.1042 88.4643 85.848 87.5835 87.1344 86.0165C88.4201 84.4495 89.1429 82.3235 89.1429 80.1071V48.7165Z" fill="black"/>
</svg>
