<svg width="28" height="31" viewBox="0 0 28 31" fill="none" xmlns="http://www.w3.org/2000/svg">
<path fill-rule="evenodd" clip-rule="evenodd" d="M14.1719 29.0336L15.178 23.3304L15.243 23.0144C15.2914 22.7395 15.4488 22.4881 15.686 22.3071C15.9231 22.1261 16.2255 22.0262 16.5373 22.0262H17.3363C18.668 22.0262 19.8914 21.899 20.9729 21.6483C22.1267 21.3809 23.153 20.9644 24.0229 20.4115C24.9453 19.825 25.7199 19.067 26.3258 18.1589C26.9649 17.2008 27.4342 16.0473 27.7208 14.7308C27.974 13.5682 28.0215 12.5275 27.8624 11.6371C27.6939 10.6965 27.2885 9.89391 26.6578 9.25098C26.2753 8.86159 25.7859 8.52419 25.2033 8.24813L25.1895 8.24153L25.1892 8.2265C25.3926 7.06606 25.3849 6.09809 25.166 5.26482C24.9459 4.42975 24.5006 3.67829 23.8032 2.96801C22.3585 1.49635 19.7306 0.75 15.9931 0.75H5.72828C5.38519 0.75 5.05217 0.859759 4.79114 1.05913C4.53011 1.2585 4.3572 1.53545 4.30338 1.83856L0.0292841 26.0675C-0.00973646 26.2885 0.0612406 26.5131 0.22405 26.6827C0.386861 26.8532 0.623678 26.9509 0.873942 26.9509H7.24203L7.23631 26.978L6.799 29.457C6.76536 29.6497 6.82725 29.8452 6.96889 29.9932C7.11048 30.1414 7.31673 30.2268 7.5347 30.2268H12.8758C13.1755 30.2268 13.4658 30.1309 13.6936 29.9568C13.9213 29.7827 14.0727 29.5412 14.1194 29.2769L14.1719 29.0336Z" fill="#27346A"/>
<path fill-rule="evenodd" clip-rule="evenodd" d="M25.2152 8.22739C25.1846 8.40268 25.1506 8.58101 25.1102 8.76474C23.757 14.9777 19.1256 17.1256 13.2106 17.1256H10.1986C9.47609 17.1256 8.86589 17.5959 8.75322 18.234L6.77358 29.4537C6.69992 29.8717 7.06153 30.25 7.53481 30.25H12.8763C13.5084 30.25 14.0466 29.8389 14.1451 29.2805L14.1976 29.0378L15.2037 23.334L15.2687 23.0189C15.3672 22.4605 15.9054 22.0494 16.5375 22.0494H17.3364C22.511 22.0494 26.5628 20.17 27.7468 14.735C28.2413 12.4641 27.9856 10.5684 26.6774 9.23565C26.2819 8.83271 25.7894 8.49924 25.2152 8.22739Z" fill="#2790C3"/>
<path fill-rule="evenodd" clip-rule="evenodd" d="M23.7985 7.72274C23.5923 7.66861 23.3793 7.62023 23.1597 7.57662C22.94 7.533 22.7143 7.4945 22.4822 7.46116C21.6695 7.34416 20.7808 7.28824 19.8274 7.28824H11.7815C11.584 7.28824 11.3956 7.32853 11.2268 7.40067C10.8557 7.5598 10.5802 7.87402 10.5126 8.258L8.80245 17.951L8.75322 18.234C8.86589 17.5959 9.47609 17.1256 10.1986 17.1256H13.2106C19.1256 17.1256 23.757 14.9777 25.1102 8.76474C25.1506 8.58101 25.1846 8.40268 25.2152 8.22739C24.8734 8.06559 24.5018 7.92602 24.1029 7.80753C24.003 7.77776 23.9017 7.74953 23.7985 7.72274Z" fill="#1E1E1E"/>
</svg>
