<svg width="212" height="278" viewBox="0 0 212 278" fill="none" xmlns="http://www.w3.org/2000/svg">
<path fill-rule="evenodd" clip-rule="evenodd" d="M109.567 202.768L112.891 175.896L113.105 174.407C113.265 173.112 113.785 171.927 114.569 171.074C115.352 170.221 116.351 169.751 117.381 169.751H120.019C124.418 169.751 128.459 169.151 132.031 167.97C135.842 166.71 139.232 164.748 142.106 162.142C145.152 159.379 147.711 155.807 149.712 151.528C151.823 147.014 153.373 141.579 154.32 135.376C155.156 129.898 155.313 124.994 154.788 120.799C154.231 116.367 152.892 112.585 150.809 109.555C149.545 107.721 147.929 106.131 146.004 104.83L145.959 104.799L145.958 104.728C146.63 99.2604 146.604 94.6995 145.881 90.7732C145.154 86.8385 143.683 83.2977 141.38 79.951C136.608 73.0167 127.928 69.5 115.583 69.5H81.6779C80.5447 69.5 79.4447 70.0172 78.5825 70.9566C77.7203 71.896 77.1492 73.2009 76.9714 74.6292L62.854 188.792C62.7251 189.834 62.9595 190.892 63.4973 191.691C64.0351 192.495 64.8173 192.955 65.6439 192.955H86.6779L86.659 193.083L85.2145 204.764C85.1034 205.672 85.3079 206.593 85.7757 207.29C86.2434 207.988 86.9246 208.391 87.6446 208.391H105.286C106.276 208.391 107.235 207.939 107.988 207.118C108.74 206.298 109.24 205.16 109.394 203.915L109.567 202.768Z" fill="#27346A"/>
<path fill-rule="evenodd" clip-rule="evenodd" d="M146.044 104.732C145.943 105.558 145.83 106.399 145.697 107.264C141.227 136.539 125.93 146.66 106.392 146.66H96.4437C94.0571 146.66 92.0415 148.876 91.6694 151.882L85.1306 204.748C84.8873 206.717 86.0817 208.5 87.6449 208.5H105.288C107.376 208.5 109.154 206.563 109.479 203.932L109.652 202.788L112.976 175.913L113.19 174.428C113.516 171.797 115.293 169.86 117.381 169.86H120.02C137.112 169.86 150.495 161.004 154.406 135.395C156.039 124.695 155.195 115.763 150.874 109.483C149.567 107.585 147.94 106.013 146.044 104.732Z" fill="#2790C3"/>
<path fill-rule="evenodd" clip-rule="evenodd" d="M141.364 102.355C140.683 102.1 139.98 101.872 139.254 101.666C138.529 101.461 137.783 101.279 137.017 101.122C134.332 100.571 131.397 100.307 128.248 100.307H101.672C101.02 100.307 100.397 100.497 99.8396 100.837C98.6141 101.587 97.704 103.067 97.4807 104.877L91.832 150.549L91.6694 151.882C92.0415 148.876 94.0571 146.66 96.4437 146.66H106.392C125.93 146.66 141.227 136.539 145.697 107.264C145.83 106.399 145.943 105.558 146.044 104.732C144.915 103.97 143.687 103.312 142.37 102.754C142.04 102.614 141.705 102.481 141.364 102.355Z" fill="#1E1E1E"/>
</svg>
