<svg width="111" height="131" viewBox="0 0 111 131" fill="none" xmlns="http://www.w3.org/2000/svg">
<g clip-path="url(#clip0_246_230)">
<path d="M75.3214 42.1071C75.3214 39.0352 74.8088 35.9933 73.8126 33.1551C72.8165 30.3169 71.3564 27.7381 69.5159 25.5659C67.6753 23.3937 65.4902 21.6706 63.0853 20.4949C60.6804 19.3193 58.1029 18.7143 55.5 18.7143H19.8214C15.6612 18.7143 11.6066 20.259 8.2316 23.1298C4.85673 26.0007 2.33273 30.0519 1.01717 34.7097C-0.298391 39.3675 -0.338821 44.3957 0.901605 49.0821C2.14204 53.7686 4.60043 57.8756 7.92857 60.8214V107.607C7.92857 110.089 8.76392 112.469 10.2508 114.224C11.7377 115.978 13.7543 116.964 15.8571 116.964H59.4643C61.5671 116.964 63.5837 115.978 65.0707 114.224C66.5575 112.469 67.3929 110.089 67.3929 107.607V60.8214C69.8592 58.6475 71.8606 55.8231 73.2372 52.5737C74.6139 49.3243 75.3276 45.74 75.3214 42.1071Z" fill="black"/>
<path fill-rule="evenodd" clip-rule="evenodd" d="M84.8 27.7839C86.3937 32.3249 87.2143 37.1638 87.2143 42.079C87.2238 47.9003 86.0805 53.6438 83.874 58.8506C83.5996 59.4992 83.3095 60.1371 83.0042 60.7639H103.071C103.093 60.7639 103.114 60.7641 103.136 60.7643C105.572 58.5982 107.551 55.7948 108.916 52.5737C110.292 49.3243 111.006 45.74 111 42.1071C111 39.0352 110.487 35.9933 109.491 33.1551C108.495 30.3169 107.035 27.7381 105.194 25.5659C103.354 23.3937 101.169 21.6706 98.7638 20.4949C96.3591 19.3193 93.7815 18.7143 91.1786 18.7143H80.257C82.1226 21.4642 83.6536 24.5166 84.8 27.7839ZM103.071 72.4603H79.2855V107.607C79.2855 110.859 78.7118 114.041 77.6307 116.964H95.1429C97.2455 116.964 99.2617 115.978 100.749 114.224C102.236 112.469 103.071 110.089 103.071 107.607V72.4603Z" fill="black"/>
</g>
<defs>
<clipPath id="clip0_246_230">
<rect width="111" height="131" fill="white"/>
</clipPath>
</defs>
</svg>
